<svg xmlns="http://www.w3.org/2000/svg" width="340" height="200" viewBox="0 0 340 200">
<style>* { font-family: 'Segoe UI', Ubuntu, "Helvetica Neue", Sans-Serif }</style>
<g>
<rect x="1" y="1" rx="5" ry="5" width="99.41176470588235%" height="99.0%" fill="#0d1117" stroke="#2e343b" stroke-width="1" stroke-opacity="1"></rect>
<text x="30" y="40" style="font-size:22px;fill:#0366d6;">Top Languages by Repo</text>
<g transform="translate(0,40)">
<g transform="translate(40,0)"><rect x="0" y="18.00" width="14" height="14" fill="#f34b7d" stroke="#0d1117" stroke-width="1"></rect><text x="16.8" y="30.00" style="fill:#77909c;font-size:14px;">C++</text><rect x="0" y="43.20" width="14" height="14" fill="#555555" stroke="#0d1117" stroke-width="1"></rect><text x="16.8" y="55.20" style="fill:#77909c;font-size:14px;">C</text><rect x="0" y="68.40" width="14" height="14" fill="#3178c6" stroke="#0d1117" stroke-width="1"></rect><text x="16.8" y="80.40" style="fill:#77909c;font-size:14px;">TypeScript</text><rect x="0" y="93.60" width="14" height="14" fill="#DA5B0B" stroke="#0d1117" stroke-width="1"></rect><text x="16.8" y="105.60" style="fill:#77909c;font-size:14px;">Jupyter Notebook</text><rect x="0" y="118.80" width="14" height="14" fill="#3572A5" stroke="#0d1117" stroke-width="1"></rect><text x="16.8" y="130.80" style="fill:#77909c;font-size:14px;">Python</text></g><g transform="translate(230.0,80.0)"><path d="M0.000,-60.000 A60.000,60.000 0 1 1 -11.545,58.879 L-6.735,34.346 A35.000,35.000 0 1 0 0.000,-35.000 Z" fill="#f34b7d" stroke="#0d1117" stroke-width="2"></path><path d="M-11.545,58.879 A60.000,60.000 0 0 1 -17.121,-57.505 L-9.988,-33.545 A35.000,35.000 0 0 0 -6.735,34.346 Z" fill="#555555" stroke="#0d1117" stroke-width="2"></path><path d="M-17.121,-57.505 A60.000,60.000 0 0 1 -11.161,-58.953 L-6.511,-34.389 A35.000,35.000 0 0 0 -9.988,-33.545 Z" fill="#3178c6" stroke="#0d1117" stroke-width="2"></path><path d="M-11.161,-58.953 A60.000,60.000 0 0 1 -5.112,-59.782 L-2.982,-34.873 A35.000,35.000 0 0 0 -6.511,-34.389 Z" fill="#DA5B0B" stroke="#0d1117" stroke-width="2"></path><path d="M-5.112,-59.782 A60.000,60.000 0 0 1 -0.000,-60.000 L-0.000,-35.000 A35.000,35.000 0 0 0 -2.982,-34.873 Z" fill="#3572A5" stroke="#0d1117" stroke-width="2"></path></g>
</g>
</g>
</svg>