<svg xmlns="http://www.w3.org/2000/svg" width="340" height="200" viewBox="0 0 340 200">
<style>* { font-family: 'Segoe UI', Ubuntu, "Helvetica Neue", Sans-Serif }</style>
<g>
<rect x="1" y="1" rx="5" ry="5" width="99.41176470588235%" height="99.0%" fill="#0d1117" stroke="#2e343b" stroke-width="1" stroke-opacity="1"></rect>
<text x="30" y="40" style="font-size:22px;fill:#0366d6;">Top Languages by Repo</text>
<g transform="translate(0,40)">
<g transform="translate(40,0)"><rect x="0" y="18.00" width="14" height="14" fill="#f34b7d" stroke="#0d1117" stroke-width="1"></rect><text x="16.8" y="30.00" style="fill:#77909c;font-size:14px;">C++</text><rect x="0" y="43.20" width="14" height="14" fill="#555555" stroke="#0d1117" stroke-width="1"></rect><text x="16.8" y="55.20" style="fill:#77909c;font-size:14px;">C</text><rect x="0" y="68.40" width="14" height="14" fill="#3572A5" stroke="#0d1117" stroke-width="1"></rect><text x="16.8" y="80.40" style="fill:#77909c;font-size:14px;">Python</text><rect x="0" y="93.60" width="14" height="14" fill="#3178c6" stroke="#0d1117" stroke-width="1"></rect><text x="16.8" y="105.60" style="fill:#77909c;font-size:14px;">TypeScript</text><rect x="0" y="118.80" width="14" height="14" fill="#663399" stroke="#0d1117" stroke-width="1"></rect><text x="16.8" y="130.80" style="fill:#77909c;font-size:14px;">CSS</text></g><g transform="translate(230.0,80.0)"><path d="M0.000,-60.000 A60.000,60.000 0 1 1 -15.317,58.012 L-8.935,33.840 A35.000,35.000 0 1 0 0.000,-35.000 Z" fill="#f34b7d" stroke="#0d1117" stroke-width="2"></path><path d="M-15.317,58.012 A60.000,60.000 0 0 1 -10.354,-59.100 L-6.040,-34.475 A35.000,35.000 0 0 0 -8.935,33.840 Z" fill="#555555" stroke="#0d1117" stroke-width="2"></path><path d="M-10.354,-59.100 A60.000,60.000 0 0 1 -5.194,-59.775 L-3.030,-34.869 A35.000,35.000 0 0 0 -6.040,-34.475 Z" fill="#3572A5" stroke="#0d1117" stroke-width="2"></path><path d="M-5.194,-59.775 A60.000,60.000 0 0 1 -2.345,-59.954 L-1.368,-34.973 A35.000,35.000 0 0 0 -3.030,-34.869 Z" fill="#3178c6" stroke="#0d1117" stroke-width="2"></path><path d="M-2.345,-59.954 A60.000,60.000 0 0 1 -0.000,-60.000 L-0.000,-35.000 A35.000,35.000 0 0 0 -1.368,-34.973 Z" fill="#663399" stroke="#0d1117" stroke-width="2"></path></g>
</g>
</g>
</svg>